<mxfile host="app.diagrams.net" modified="2022-04-07T15:00:17.547Z" agent="5.0 (Windows NT 10.0; Win64; x64) AppleWebKit/537.36 (KHTML, like Gecko) Chrome/99.0.4844.84 Safari/537.36" etag="0QN5MrK5SQBpuz3qp3WK" version="17.4.1" type="github">
  <diagram id="90TsLOlnTf1S2-_U74h6" name="Page-1">
    <mxGraphModel dx="1422" dy="914" grid="1" gridSize="10" guides="1" tooltips="1" connect="1" arrows="1" fold="1" page="1" pageScale="1" pageWidth="827" pageHeight="1169" math="0" shadow="0">
      <root>
        <mxCell id="0" />
        <mxCell id="1" parent="0" />
        <mxCell id="lYEQaYUr_PTFDYDycgIa-5" value="" style="edgeStyle=orthogonalEdgeStyle;rounded=0;orthogonalLoop=1;jettySize=auto;html=1;" edge="1" parent="1" source="lYEQaYUr_PTFDYDycgIa-3" target="lYEQaYUr_PTFDYDycgIa-4">
          <mxGeometry relative="1" as="geometry" />
        </mxCell>
        <mxCell id="lYEQaYUr_PTFDYDycgIa-7" value="" style="edgeStyle=orthogonalEdgeStyle;rounded=0;orthogonalLoop=1;jettySize=auto;html=1;" edge="1" parent="1" source="lYEQaYUr_PTFDYDycgIa-3" target="lYEQaYUr_PTFDYDycgIa-6">
          <mxGeometry relative="1" as="geometry" />
        </mxCell>
        <mxCell id="lYEQaYUr_PTFDYDycgIa-9" value="" style="edgeStyle=orthogonalEdgeStyle;rounded=0;orthogonalLoop=1;jettySize=auto;html=1;" edge="1" parent="1" source="lYEQaYUr_PTFDYDycgIa-3" target="lYEQaYUr_PTFDYDycgIa-8">
          <mxGeometry relative="1" as="geometry" />
        </mxCell>
        <mxCell id="lYEQaYUr_PTFDYDycgIa-3" value="«block»&lt;br&gt;&lt;b&gt;Feux de signalisation&lt;/b&gt;" style="html=1;" vertex="1" parent="1">
          <mxGeometry x="360" y="50" width="130" height="50" as="geometry" />
        </mxCell>
        <mxCell id="lYEQaYUr_PTFDYDycgIa-4" value="«block»&lt;br&gt;&lt;b&gt;Manettes de commande&lt;/b&gt;" style="html=1;" vertex="1" parent="1">
          <mxGeometry x="70" y="150" width="140" height="50" as="geometry" />
        </mxCell>
        <mxCell id="lYEQaYUr_PTFDYDycgIa-6" value="«block»&lt;br&gt;&lt;b&gt;Clignotants&lt;/b&gt;" style="html=1;" vertex="1" parent="1">
          <mxGeometry x="640" y="150" width="130" height="50" as="geometry" />
        </mxCell>
        <mxCell id="lYEQaYUr_PTFDYDycgIa-8" value="«block»&lt;br&gt;&lt;b&gt;Feu stop&lt;/b&gt;" style="html=1;" vertex="1" parent="1">
          <mxGeometry x="360" y="150" width="130" height="50" as="geometry" />
        </mxCell>
      </root>
    </mxGraphModel>
  </diagram>
</mxfile>
